<svg width="43" height="70" viewBox="0 0 43 70" fill="none" xmlns="http://www.w3.org/2000/svg">
<path opacity="0.6" fill-rule="evenodd" clip-rule="evenodd" d="M23.1758 42.5583L22.9833 42.5868H22.748C22.8906 42.5868 23.0332 42.5726 23.1758 42.5583Z" fill="#005B9A"/>
<path fill-rule="evenodd" clip-rule="evenodd" d="M16.0968 39.7046L21.2009 42.7363C17.2445 42.7221 13.5375 41.6119 10.3652 39.7046H16.0968Z" fill="#005B9A"/>
<path fill-rule="evenodd" clip-rule="evenodd" d="M26.4479 39.7046H32.208C29.0286 41.619 25.3073 42.7292 21.3438 42.7363L26.4479 39.7046Z" fill="#005B9A"/>
<path fill-rule="evenodd" clip-rule="evenodd" d="M38.6455 33.7263C37.9683 34.68 37.2126 35.5767 36.3928 36.4093H29.1357L21.287 42.4444L13.4738 36.4876V36.4663H6.22388C5.38981 35.6265 4.61991 34.7227 3.93555 33.7548H12.2406L21.287 40.8787L30.4617 33.7263H38.6455Z" fill="#005B9A"/>
<path fill-rule="evenodd" clip-rule="evenodd" d="M41.4107 28.3816C41.0828 29.321 40.6836 30.2391 40.2345 31.1144H31.7298L21.2648 39.7186L10.864 31.086H2.30945C1.86034 30.2177 1.47538 29.3139 1.14746 28.3816H10.4719L21.2933 36.9431L32.0934 28.3816H41.4107Z" fill="#005B9A"/>
<path fill-rule="evenodd" clip-rule="evenodd" d="M42.5658 22.667C42.5088 23.5993 42.3876 24.5102 42.2165 25.407H32.7281L21.2794 35.1569L9.84482 25.407H0.349309C0.17109 24.5102 0.0570301 23.5993 0 22.667H9.65947L21.2936 32.3743L32.9563 22.667H42.573H42.5658Z" fill="#005B9A"/>
<path fill-rule="evenodd" clip-rule="evenodd" d="M16.0902 3.03886H10.3516C13.531 1.12445 17.2451 0.0142336 21.2158 0L16.0973 3.03886H16.0902Z" fill="#005B9A"/>
<path fill-rule="evenodd" clip-rule="evenodd" d="M26.4485 3.03886L21.3301 0C25.3079 0 29.0363 1.11733 32.2228 3.03886H26.4485Z" fill="#005B9A"/>
<path fill-rule="evenodd" clip-rule="evenodd" d="M38.5881 8.92435H30.4613L21.2866 1.77199L12.2402 8.89589H3.99219C4.69081 7.928 5.46071 7.02417 6.30191 6.18439H13.4663V6.16304L21.2866 0.206299L29.1353 6.24133H36.314C37.1409 7.06687 37.9037 7.96359 38.5881 8.92435Z" fill="#005B9A"/>
<path fill-rule="evenodd" clip-rule="evenodd" d="M41.3898 14.2762H32.101L21.301 5.71475L10.4795 14.2762H1.18359C1.51152 13.3439 1.91073 12.4401 2.35984 11.5719H10.8787L21.2796 2.93921L31.7446 11.5434H40.2064C40.6627 12.4188 41.0619 13.3368 41.3969 14.2762H41.3898Z" fill="#005B9A"/>
<path fill-rule="evenodd" clip-rule="evenodd" d="M42.5658 19.9912H32.9563L21.2936 10.2839L9.65947 19.9912H0C0.0641588 19.0589 0.185347 18.1479 0.363566 17.2512H9.84482L21.2793 7.50122L32.7281 17.2512H42.2023C42.3805 18.1479 42.5017 19.0589 42.5658 19.9912Z" fill="#005B9A"/>
<path fill-rule="evenodd" clip-rule="evenodd" d="M27.9305 21.3291V21.4003C27.8948 25.0014 24.8437 27.905 21.2722 28.0046C17.7007 27.905 14.6496 25.0014 14.6211 21.4003V21.3291C14.6282 17.6497 17.608 14.6536 21.2794 14.6536C24.9507 14.6536 27.9234 17.6497 27.9305 21.3291Z" fill="#E63312"/>
<path opacity="0.6" fill-rule="evenodd" clip-rule="evenodd" d="M22.7335 42.594C22.3414 42.6225 21.9422 42.6367 21.543 42.6438L22.7335 42.594Z" fill="#005B9A"/>
<path fill-rule="evenodd" clip-rule="evenodd" d="M4.18458 52.0378C4.18458 52.0378 4.24874 52.0378 4.27726 52.0521C4.30577 52.0663 4.34141 52.0876 4.36993 52.1161L4.89746 52.6712C4.66934 52.9701 4.37706 53.1979 4.02775 53.3544C3.67844 53.511 3.26497 53.5822 2.79447 53.5822C2.35962 53.5822 1.96754 53.5039 1.62536 53.3616C1.28318 53.2121 0.983768 53.0057 0.748519 52.7495C0.506141 52.4862 0.320793 52.1802 0.192475 51.8243C0.0641578 51.4685 0 51.0771 0 50.6572C0 50.2373 0.0712872 49.8387 0.220991 49.4758C0.370695 49.12 0.577428 48.8068 0.841193 48.5506C1.10496 48.2944 1.41862 48.088 1.78932 47.9457C2.16001 47.8033 2.56635 47.7322 3.00834 47.7322C3.2222 47.7322 3.42893 47.7535 3.61428 47.7891C3.80676 47.8247 3.98498 47.8816 4.14894 47.9457C4.3129 48.0097 4.46973 48.0951 4.60518 48.1877C4.74062 48.2802 4.86894 48.3869 4.97587 48.4937L4.52676 49.0986C4.49825 49.1342 4.4626 49.1698 4.42696 49.1982C4.38419 49.2267 4.33429 49.2409 4.263 49.2409C4.2131 49.2409 4.17033 49.2338 4.12755 49.2125C4.08478 49.1911 4.04201 49.1627 3.9921 49.1342C3.9422 49.1057 3.8923 49.0701 3.83527 49.0345C3.77824 48.999 3.71408 48.9634 3.63567 48.9349C3.55725 48.9064 3.46458 48.878 3.36477 48.8566C3.25784 48.8353 3.13665 48.8282 3.00121 48.8282C2.75883 48.8282 2.53784 48.8709 2.33823 48.9563C2.13863 49.0417 1.96754 49.1627 1.82496 49.3192C1.68239 49.4758 1.56833 49.6679 1.48991 49.8957C1.41149 50.1234 1.36872 50.3725 1.36872 50.6572C1.36872 50.9418 1.41149 51.2123 1.48991 51.44C1.56833 51.6678 1.68239 51.8599 1.81783 52.0165C1.95328 52.1731 2.11724 52.294 2.30259 52.3723C2.48794 52.4506 2.68041 52.4933 2.89428 52.4933C3.01547 52.4933 3.1224 52.4933 3.2222 52.472C3.322 52.4577 3.41468 52.4435 3.50022 52.415C3.58577 52.3866 3.66418 52.351 3.7426 52.3012C3.82102 52.2585 3.89943 52.2015 3.97785 52.1303C4.00636 52.1019 4.04201 52.0805 4.07765 52.0663C4.11329 52.0521 4.14894 52.0378 4.19171 52.0378H4.18458Z" fill="#005B9A"/>
<path fill-rule="evenodd" clip-rule="evenodd" d="M6.20155 47.7893C6.25858 47.7893 6.30848 47.7893 6.34412 47.7964C6.3869 47.7964 6.41541 47.8107 6.45106 47.8249C6.47957 47.8391 6.51522 47.8605 6.54373 47.8889C6.57225 47.9174 6.60789 47.953 6.64353 47.9957L9.36672 51.4402C9.35959 51.3335 9.34533 51.2196 9.34533 51.12C9.34533 51.0132 9.3382 50.9207 9.3382 50.8282V47.7964H10.5145V53.5254H9.82296C9.72316 53.5254 9.63048 53.5112 9.56632 53.4756C9.49504 53.4471 9.42375 53.3831 9.35959 53.3048L6.65066 49.8888C6.65779 49.9884 6.66492 50.088 6.67205 50.1805C6.67205 50.2731 6.67918 50.3656 6.67918 50.451V53.5254H5.50293V47.7964H6.20155V47.7893Z" fill="#005B9A"/>
<path fill-rule="evenodd" clip-rule="evenodd" d="M15.4972 50.999C15.319 50.7926 15.0338 50.6431 14.656 50.5506C14.8342 50.4866 14.9768 50.4154 15.1051 50.33C15.2263 50.2446 15.3332 50.1521 15.4116 50.0453C15.4901 49.9386 15.5471 49.8247 15.5827 49.7108C15.6184 49.5899 15.6398 49.4689 15.6398 49.3408C15.6398 49.1059 15.597 48.8924 15.5186 48.7003C15.4402 48.5081 15.3118 48.3444 15.1336 48.2163C14.9554 48.0811 14.7273 47.9743 14.4564 47.9032C14.1784 47.832 13.8433 47.7893 13.4441 47.7893H11.334V53.5183H13.6294C13.9716 53.5183 14.2782 53.4685 14.5491 53.3831C14.8199 53.2977 15.0409 53.1767 15.2263 53.0201C15.4116 52.8636 15.5471 52.6857 15.6398 52.4721C15.7396 52.2658 15.7823 52.038 15.7823 51.7889C15.7823 51.4687 15.6897 51.2054 15.5114 50.999H15.4972ZM12.6599 48.7857H13.437C13.5867 48.7857 13.715 48.7999 13.8219 48.8212C13.9289 48.8426 14.0215 48.8853 14.0928 48.9351C14.1641 48.992 14.214 49.0632 14.2496 49.1557C14.2853 49.2482 14.2995 49.3621 14.2995 49.4973C14.2995 49.6326 14.2782 49.7535 14.2354 49.8461C14.1926 49.9386 14.1285 50.0097 14.0429 50.0596C13.9645 50.1094 13.8576 50.1521 13.7364 50.1734C13.6223 50.1948 13.4869 50.209 13.3372 50.209H12.6457V48.7928L12.6599 48.7857ZM14.4136 52.038C14.3922 52.1234 14.3495 52.2088 14.2853 52.28C14.2211 52.3512 14.1356 52.4081 14.0287 52.4579C13.9146 52.5006 13.772 52.522 13.5938 52.522H12.6599V51.0986H13.5867C13.7578 51.0986 13.8932 51.1128 14.0073 51.1484C14.1213 51.184 14.2069 51.2267 14.2782 51.2836C14.3423 51.3406 14.3922 51.4117 14.4207 51.4971C14.4493 51.5754 14.4635 51.6751 14.4635 51.7818C14.4635 51.8743 14.4493 51.9597 14.4279 52.0523L14.4136 52.038Z" fill="#005B9A"/>
<path fill-rule="evenodd" clip-rule="evenodd" d="M21.9424 49.5045C21.7998 49.1487 21.6002 48.8426 21.3364 48.5793C21.0798 48.316 20.7661 48.1096 20.3954 47.9602C20.0319 47.8107 19.6184 47.7324 19.1764 47.7324C18.7344 47.7324 18.321 47.8036 17.9503 47.9602C17.5796 48.1096 17.273 48.316 17.0093 48.5722C16.7526 48.8355 16.5459 49.1487 16.4033 49.5045C16.2607 49.8603 16.1895 50.2446 16.1895 50.6645C16.1895 51.0844 16.2607 51.4616 16.4033 51.8246C16.5459 52.1804 16.7526 52.4864 17.0093 52.7498C17.273 53.0131 17.5867 53.2195 17.9503 53.3689C18.321 53.5184 18.7273 53.5967 19.1764 53.5967C19.6255 53.5967 20.0319 53.5255 20.3954 53.3689C20.7661 53.2195 21.0727 53.0131 21.3364 52.7498C21.5931 52.4864 21.7998 52.1804 21.9424 51.8246C22.0849 51.4687 22.1562 51.0844 22.1562 50.6645C22.1562 50.2446 22.0849 49.8675 21.9424 49.5116V49.5045ZM20.6877 51.4189C20.6164 51.6467 20.5095 51.8388 20.374 51.9954C20.2315 52.1519 20.0675 52.2729 19.8679 52.3583C19.6683 52.4366 19.4402 52.4793 19.1907 52.4793C18.9412 52.4793 18.7059 52.4366 18.4992 52.3583C18.2996 52.2729 18.1285 52.1519 17.993 51.9954C17.8576 51.8388 17.7507 51.6467 17.6722 51.4189C17.6009 51.1912 17.5653 50.935 17.5653 50.6503C17.5653 50.3656 17.6009 50.1094 17.6722 49.8817C17.7435 49.654 17.8505 49.4618 17.993 49.3052C18.1285 49.1487 18.2996 49.0277 18.4992 48.9423C18.6988 48.864 18.9269 48.8142 19.1907 48.8142C19.4544 48.8142 19.6754 48.8569 19.8679 48.9423C20.0675 49.0277 20.2386 49.1487 20.374 49.3052C20.5095 49.4618 20.6164 49.654 20.6877 49.8817C20.759 50.1094 20.8018 50.3656 20.8018 50.6503C20.8018 50.935 20.7661 51.1912 20.6877 51.4189Z" fill="#005B9A"/>
<path fill-rule="evenodd" clip-rule="evenodd" d="M26.9967 48.928C26.9111 48.7003 26.7686 48.501 26.5832 48.3302C26.3979 48.1665 26.1555 48.0313 25.8632 47.9316C25.5709 47.832 25.2288 47.7893 24.8224 47.7893H22.7979V53.5183H24.1309V51.6039H24.8224C25.2216 51.6039 25.5638 51.5541 25.8561 51.4616C26.1484 51.3619 26.3907 51.2338 26.5761 51.063C26.7686 50.8922 26.904 50.6858 26.9967 50.451C27.0894 50.209 27.1321 49.9528 27.1321 49.661C27.1321 49.3977 27.0894 49.1486 26.9967 48.9209V48.928ZM25.5709 50.3585C25.4141 50.5222 25.1646 50.6076 24.8224 50.6076H24.1309V48.7928H24.8224C24.9935 48.7928 25.1361 48.8141 25.2573 48.8568C25.3785 48.8995 25.4783 48.9565 25.5567 49.0347C25.6351 49.113 25.6993 49.2055 25.7349 49.3123C25.7705 49.419 25.7919 49.54 25.7919 49.6681C25.7919 49.9599 25.7135 50.1948 25.5638 50.3585H25.5709Z" fill="#005B9A"/>
<path d="M29.8695 50.636H27.7451V51.6181H29.8695V50.636Z" fill="#005B9A"/>
<path fill-rule="evenodd" clip-rule="evenodd" d="M34.9381 48.928C34.8454 48.7003 34.71 48.501 34.5246 48.3302C34.3322 48.1665 34.0969 48.0313 33.8046 47.9316C33.5123 47.832 33.163 47.7893 32.7638 47.7893H30.7393V53.5183H32.0723V51.6039H32.7638C33.163 51.6039 33.5052 51.5541 33.7975 51.4616C34.0898 51.3619 34.325 51.2338 34.5175 51.063C34.71 50.8922 34.8454 50.6858 34.9381 50.451C35.0308 50.209 35.0735 49.9528 35.0735 49.661C35.0735 49.3977 35.0236 49.1486 34.9381 48.9209V48.928ZM33.5123 50.3585C33.3626 50.5222 33.1131 50.6076 32.7638 50.6076H32.0723V48.7928H32.7638C32.9278 48.7928 33.0775 48.8141 33.1987 48.8568C33.3199 48.8995 33.4268 48.9565 33.5052 49.0347C33.5836 49.113 33.6478 49.2055 33.6834 49.3123C33.7262 49.419 33.7476 49.54 33.7476 49.6681C33.7476 49.9599 33.6692 50.1948 33.5195 50.3585H33.5123Z" fill="#005B9A"/>
<path d="M37.226 47.7893H35.8857V53.5183H37.226V47.7893Z" fill="#005B9A"/>
<path fill-rule="evenodd" clip-rule="evenodd" d="M42.4584 50.999C42.2802 50.7926 41.995 50.6431 41.6172 50.5506C41.7883 50.4866 41.938 50.4154 42.0592 50.33C42.1875 50.2446 42.2873 50.1521 42.3657 50.0453C42.4442 49.9386 42.5012 49.8247 42.544 49.7108C42.5796 49.5899 42.5939 49.4689 42.5939 49.3408C42.5939 49.1059 42.5582 48.8924 42.4798 48.7003C42.4014 48.5081 42.2731 48.3444 42.0948 48.2163C41.9166 48.0811 41.6885 47.9743 41.4105 47.9032C41.1325 47.832 40.7974 47.7893 40.3982 47.7893H38.2881V53.5183H40.5764C40.9186 53.5183 41.2251 53.4685 41.496 53.3831C41.7669 53.2977 41.9879 53.1767 42.1733 53.0201C42.3515 52.8636 42.4941 52.6857 42.5867 52.4721C42.6794 52.2658 42.7293 52.038 42.7293 51.7889C42.7293 51.4687 42.6366 51.2054 42.4584 50.999ZM39.614 48.7857H40.3911C40.5408 48.7857 40.6691 48.7999 40.7832 48.8212C40.8901 48.8426 40.9756 48.8853 41.054 48.9351C41.1253 48.992 41.1752 49.0632 41.2109 49.1557C41.2465 49.2482 41.2608 49.3621 41.2608 49.4973C41.2608 49.6326 41.2394 49.7535 41.1966 49.8461C41.1538 49.9386 41.0897 50.0097 41.0041 50.0596C40.9257 50.1094 40.8188 50.1521 40.7047 50.1734C40.5907 50.1948 40.4552 50.209 40.3055 50.209H39.614V48.7928V48.7857ZM41.3748 52.038C41.3535 52.1234 41.3107 52.2088 41.2465 52.28C41.1824 52.3512 41.0968 52.4081 40.9828 52.4579C40.8687 52.5006 40.7261 52.522 40.5479 52.522H39.614V51.0986H40.5479C40.7119 51.0986 40.8544 51.1128 40.9685 51.1484C41.0826 51.184 41.1681 51.2267 41.2323 51.2836C41.2964 51.3406 41.3463 51.4117 41.3748 51.4971C41.4034 51.5754 41.4176 51.6751 41.4176 51.7818C41.4176 51.8743 41.4034 51.9597 41.382 52.0523L41.3748 52.038Z" fill="#005B9A"/>
<path d="M7.94857 59.8734C7.94857 59.9304 7.94857 59.9802 7.94144 60.0158C7.94144 60.0585 7.92719 60.0869 7.92006 60.1154C7.91293 60.1439 7.89867 60.1581 7.88441 60.1723C7.87016 60.1866 7.8559 60.1866 7.83451 60.1866H6.88639V63.2397C6.88639 63.2397 6.88639 63.2753 6.865 63.2895C6.85074 63.3037 6.82936 63.318 6.80084 63.3251C6.77233 63.3322 6.72955 63.3393 6.67965 63.3464C6.62975 63.3464 6.56559 63.3535 6.49431 63.3535C6.42302 63.3535 6.35886 63.3535 6.30896 63.3464C6.25906 63.3464 6.21628 63.3322 6.18777 63.3251C6.15925 63.318 6.13787 63.3037 6.12361 63.2895C6.10935 63.2753 6.10222 63.2539 6.10222 63.2397V60.1866H5.1541C5.1541 60.1866 5.11846 60.1866 5.1042 60.1723C5.08994 60.1581 5.07568 60.1439 5.06855 60.1154C5.06143 60.0869 5.0543 60.0585 5.04717 60.0158C5.04717 59.9731 5.04004 59.9304 5.04004 59.8734C5.04004 59.8165 5.04004 59.7667 5.04717 59.724C5.0543 59.6813 5.06143 59.6528 5.06855 59.6244C5.07568 59.5959 5.08994 59.5817 5.1042 59.5745C5.11846 59.5674 5.13271 59.5603 5.1541 59.5603H7.82738C7.82738 59.5603 7.86303 59.5603 7.87729 59.5745C7.89154 59.5817 7.9058 59.603 7.91293 59.6244C7.92006 59.6457 7.92719 59.6813 7.93431 59.724C7.94144 59.7667 7.94144 59.8165 7.94144 59.8734H7.94857Z" fill="#E63312"/>
<path d="M10.643 63.0475C10.643 63.1045 10.643 63.1543 10.6359 63.1899C10.6359 63.2254 10.6216 63.261 10.6145 63.2824C10.6074 63.3037 10.5931 63.3251 10.5789 63.3322C10.5646 63.3393 10.5503 63.3464 10.529 63.3464H8.62558C8.56142 63.3464 8.50439 63.3251 8.46162 63.2895C8.41885 63.2539 8.39746 63.1899 8.39746 63.1045V59.8023C8.39746 59.7169 8.41885 59.6528 8.46162 59.6172C8.50439 59.5817 8.56142 59.5603 8.62558 59.5603H10.5218C10.5218 59.5603 10.5575 59.5603 10.5717 59.5745C10.586 59.5888 10.6002 59.603 10.6074 59.6244C10.6145 59.6457 10.6216 59.6813 10.6288 59.7169C10.6288 59.7525 10.6359 59.8023 10.6359 59.8592C10.6359 59.9161 10.6359 59.9588 10.6288 60.0015C10.6216 60.0442 10.6145 60.0727 10.6074 60.0941C10.6002 60.1154 10.586 60.1368 10.5717 60.1439C10.5575 60.1581 10.5432 60.1581 10.5218 60.1581H9.16737V61.0833H10.3151C10.3151 61.0833 10.3507 61.0833 10.365 61.0975C10.3793 61.1118 10.3935 61.126 10.4006 61.1473C10.4078 61.1687 10.4149 61.1972 10.422 61.2399C10.422 61.2754 10.4292 61.3253 10.4292 61.3822C10.4292 61.4391 10.4292 61.489 10.422 61.5245C10.422 61.5601 10.4078 61.5886 10.4006 61.6171C10.3935 61.6455 10.3793 61.6526 10.365 61.6669C10.3507 61.6811 10.3365 61.6811 10.3151 61.6811H9.16737V62.7486H10.5361C10.5361 62.7486 10.5717 62.7486 10.586 62.7629C10.6002 62.77 10.6145 62.7913 10.6216 62.8127C10.6288 62.834 10.6359 62.8696 10.643 62.9052C10.6502 62.9408 10.6501 62.9906 10.6501 63.0475H10.643Z" fill="#E63312"/>
<path d="M13.5166 62.2077C13.5166 62.407 13.481 62.5849 13.4026 62.7343C13.3313 62.8838 13.2244 63.0119 13.1032 63.1115C12.982 63.2111 12.8252 63.2894 12.6612 63.3392C12.4901 63.3891 12.3119 63.4175 12.1123 63.4175C11.984 63.4175 11.8628 63.4033 11.7487 63.3891C11.6347 63.3677 11.5349 63.3393 11.4493 63.3108C11.3638 63.2823 11.2925 63.2467 11.2354 63.2183C11.1784 63.1827 11.1356 63.1542 11.1143 63.1329C11.0857 63.1044 11.0715 63.0688 11.0572 63.0261C11.043 62.9834 11.043 62.9122 11.043 62.8197C11.043 62.7628 11.043 62.7059 11.043 62.6703C11.043 62.6276 11.0501 62.5991 11.0644 62.5706C11.0715 62.5422 11.0857 62.5279 11.1 62.5137C11.1143 62.4995 11.1285 62.4995 11.1499 62.4995C11.1784 62.4995 11.2141 62.5137 11.264 62.5493C11.3139 62.5849 11.378 62.6205 11.4564 62.656C11.5349 62.6916 11.6275 62.7272 11.7345 62.7628C11.8414 62.7913 11.9697 62.8126 12.1123 62.8126C12.205 62.8126 12.2905 62.7984 12.3618 62.777C12.4331 62.7557 12.4972 62.7201 12.5543 62.6845C12.6113 62.6489 12.6469 62.592 12.6755 62.5351C12.704 62.4781 12.7182 62.407 12.7182 62.3358C12.7182 62.2504 12.6968 62.1792 12.6469 62.1152C12.597 62.0511 12.54 62.0013 12.4616 61.9515C12.3832 61.9017 12.2976 61.859 12.205 61.8163C12.1123 61.7736 12.0125 61.7309 11.9056 61.681C11.8057 61.6312 11.7059 61.5814 11.6061 61.5245C11.5135 61.4675 11.4279 61.3964 11.3495 61.311C11.2711 61.2256 11.2141 61.133 11.1642 61.0192C11.1143 60.9053 11.0929 60.7701 11.0929 60.6135C11.0929 60.4356 11.1285 60.2719 11.1927 60.1367C11.2568 60.0015 11.3495 59.8876 11.4636 59.7951C11.5776 59.7026 11.7131 59.6385 11.8699 59.5887C12.0267 59.546 12.1907 59.5247 12.3618 59.5247C12.4545 59.5247 12.54 59.5247 12.6327 59.546C12.7254 59.5602 12.8038 59.5816 12.8822 59.6029C12.9606 59.6243 13.0319 59.6528 13.0889 59.6812C13.146 59.7097 13.1887 59.7382 13.2101 59.7524C13.2315 59.7737 13.2458 59.788 13.2529 59.8022C13.26 59.8164 13.2671 59.8307 13.2671 59.8591C13.2671 59.8876 13.2743 59.909 13.2743 59.9445C13.2743 59.9801 13.2743 60.0228 13.2743 60.0726C13.2743 60.1296 13.2743 60.1794 13.2743 60.215C13.2743 60.2506 13.2671 60.2861 13.26 60.3146C13.26 60.3431 13.2458 60.3573 13.2315 60.3716C13.2172 60.3858 13.203 60.3858 13.1816 60.3858C13.1602 60.3858 13.1246 60.3716 13.0818 60.3431C13.0319 60.3146 12.9749 60.2862 12.9107 60.2506C12.8394 60.2221 12.761 60.1865 12.6755 60.1652C12.5828 60.1367 12.4901 60.1225 12.376 60.1225C12.2905 60.1225 12.2192 60.1296 12.1551 60.1509C12.0909 60.1723 12.041 60.2008 11.9982 60.2363C11.9555 60.2719 11.9269 60.3146 11.9056 60.3644C11.8842 60.4143 11.877 60.4712 11.877 60.5281C11.877 60.6135 11.8984 60.6847 11.9483 60.7487C11.9911 60.8128 12.0553 60.8626 12.1337 60.9124C12.2121 60.9622 12.2976 61.0049 12.3974 61.0476C12.4972 61.0903 12.597 61.133 12.6968 61.1829C12.7966 61.2327 12.8964 61.2825 12.9963 61.3394C13.0961 61.3964 13.1816 61.4675 13.26 61.5529C13.3384 61.6383 13.3955 61.7309 13.4454 61.8447C13.4953 61.9586 13.5166 62.0867 13.5166 62.2433V62.2077Z" fill="#E63312"/>
<path d="M16.5677 59.8734C16.5677 59.9304 16.5677 59.9802 16.5606 60.0158C16.5606 60.0585 16.5463 60.0869 16.5392 60.1154C16.5321 60.1439 16.5178 60.1581 16.5036 60.1723C16.4893 60.1866 16.475 60.1866 16.4537 60.1866H15.5055V63.2397C15.5055 63.2397 15.5055 63.2753 15.4841 63.2895C15.4699 63.3037 15.4485 63.318 15.42 63.3251C15.3915 63.3322 15.3487 63.3393 15.2988 63.3464C15.2489 63.3464 15.1847 63.3535 15.1134 63.3535C15.0422 63.3535 14.978 63.3535 14.9281 63.3464C14.8782 63.3464 14.8354 63.3322 14.8069 63.3251C14.7784 63.318 14.757 63.3037 14.7428 63.2895C14.7285 63.2753 14.7214 63.2539 14.7214 63.2397V60.1866H13.7732C13.7732 60.1866 13.7376 60.1866 13.7233 60.1723C13.7091 60.1581 13.6948 60.1439 13.6877 60.1154C13.6806 60.0869 13.6734 60.0585 13.6663 60.0158C13.6663 59.9731 13.6592 59.9304 13.6592 59.8734C13.6592 59.8165 13.6592 59.7667 13.6663 59.724C13.6734 59.6813 13.6806 59.6528 13.6877 59.6244C13.6948 59.5959 13.7091 59.5817 13.7233 59.5745C13.7376 59.5674 13.7519 59.5603 13.7732 59.5603H16.4465C16.4465 59.5603 16.4822 59.5603 16.4964 59.5745C16.5107 59.5817 16.5249 59.603 16.5321 59.6244C16.5392 59.6457 16.5463 59.6813 16.5535 59.724C16.5606 59.7667 16.5606 59.8165 16.5606 59.8734H16.5677Z" fill="#E63312"/>
<path d="M20.2671 61.4108C20.2671 61.7239 20.2315 62.0086 20.1531 62.2506C20.0746 62.4997 19.9606 62.706 19.8037 62.884C19.6469 63.0548 19.4616 63.19 19.2334 63.2754C19.0053 63.3608 18.7416 63.4106 18.4422 63.4106C18.1427 63.4106 17.8932 63.375 17.6722 63.2967C17.4513 63.2184 17.2659 63.1046 17.1233 62.9409C16.9808 62.7772 16.8667 62.5851 16.7954 62.336C16.7241 62.094 16.6885 61.8022 16.6885 61.4677C16.6885 61.1617 16.7241 60.8841 16.8025 60.6422C16.881 60.4002 16.995 60.1867 17.1518 60.0159C17.3087 59.8451 17.494 59.7099 17.7221 59.6245C17.9503 59.5391 18.214 59.4893 18.5134 59.4893C18.8128 59.4893 19.0552 59.5248 19.2762 59.6031C19.4972 59.6814 19.6826 59.7953 19.8251 59.9518C19.9748 60.1084 20.0818 60.3077 20.1602 60.5497C20.2386 60.7916 20.2742 61.0763 20.2742 61.4037L20.2671 61.4108ZM19.4616 61.4464C19.4616 61.2471 19.4473 61.0692 19.4117 60.9055C19.3831 60.7418 19.3261 60.6066 19.2548 60.4856C19.1764 60.3717 19.0766 60.2792 18.9554 60.2152C18.8271 60.1511 18.6774 60.1227 18.4849 60.1227C18.2924 60.1227 18.1356 60.1582 18.0073 60.2294C17.879 60.3006 17.7792 60.3931 17.7008 60.5141C17.6223 60.6351 17.5653 60.7703 17.5368 60.934C17.5083 61.0905 17.4869 61.2613 17.4869 61.4393C17.4869 61.6456 17.5012 61.8307 17.5368 61.9944C17.5653 62.158 17.6223 62.3004 17.6936 62.4143C17.7649 62.5352 17.8647 62.6206 17.993 62.6847C18.1214 62.7487 18.2782 62.7772 18.4635 62.7772C18.6489 62.7772 18.8128 62.7416 18.9412 62.6705C19.0695 62.5993 19.1693 62.5068 19.2477 62.3858C19.3261 62.2648 19.3831 62.1225 19.4117 61.9659C19.4473 61.8022 19.4616 61.6314 19.4616 61.4535V61.4464Z" fill="#E63312"/>
<path d="M24.8368 63.1473C24.8226 63.1971 24.8083 63.2327 24.7869 63.2611C24.7655 63.2896 24.737 63.3109 24.6943 63.3252C24.6515 63.3394 24.6016 63.3465 24.5374 63.3536C24.4733 63.3608 24.3877 63.3536 24.2879 63.3536C24.1739 63.3536 24.0883 63.3536 24.017 63.3536C23.9457 63.3536 23.8958 63.3394 23.8602 63.3252C23.8245 63.3109 23.796 63.2896 23.7746 63.2611C23.7533 63.2327 23.7461 63.1971 23.7319 63.1473L23.1259 60.7489L22.5485 63.1473C22.5414 63.19 22.5271 63.2255 22.5057 63.254C22.4915 63.2825 22.4629 63.3038 22.4202 63.3181C22.3845 63.3323 22.3275 63.3465 22.2633 63.3465C22.1992 63.3465 22.1136 63.3465 22.0067 63.3465C21.8926 63.3465 21.8 63.3465 21.7358 63.3465C21.6717 63.3465 21.6146 63.3323 21.579 63.3181C21.5433 63.3038 21.5148 63.2825 21.4934 63.254C21.4792 63.2255 21.4649 63.19 21.4507 63.1401L20.5881 59.838C20.5738 59.7668 20.5596 59.7099 20.5596 59.6743C20.5596 59.6316 20.5667 59.6031 20.5952 59.5818C20.6166 59.5604 20.6594 59.5462 20.7164 59.5391C20.7734 59.5319 20.8518 59.5391 20.9517 59.5391C21.0443 59.5391 21.1156 59.5391 21.1726 59.5391C21.2297 59.5391 21.2653 59.5462 21.2938 59.5604C21.3223 59.5746 21.3366 59.5889 21.3509 59.6102C21.358 59.6316 21.3651 59.66 21.3722 59.6956L22.0352 62.5993L22.7267 59.717C22.7338 59.6814 22.7481 59.6529 22.7552 59.6245C22.7624 59.596 22.7909 59.5818 22.8194 59.5675C22.8479 59.5533 22.8907 59.5462 22.9406 59.5391C22.9905 59.5319 23.0618 59.5391 23.1544 59.5391C23.2471 59.5391 23.3255 59.5391 23.3754 59.5391C23.4253 59.5391 23.4752 59.5533 23.5037 59.5675C23.5323 59.5818 23.5536 59.596 23.5679 59.6245C23.5822 59.6458 23.5893 59.6814 23.6036 59.717L24.3164 62.5993L24.9794 59.7099C24.9794 59.7099 24.9937 59.6529 25.0008 59.6316C25.0079 59.6102 25.0293 59.5889 25.0578 59.5818C25.0863 59.5675 25.122 59.5604 25.179 59.5533C25.2289 59.5533 25.3002 59.5533 25.3929 59.5533C25.4784 59.5533 25.5426 59.5533 25.5925 59.5533C25.6424 59.5533 25.678 59.5746 25.6923 59.596C25.7137 59.6173 25.7208 59.6458 25.7208 59.6885C25.7208 59.7312 25.7065 59.7881 25.6923 59.8593L24.8226 63.1544L24.8368 63.1473Z" fill="#E63312"/>
<path d="M29.1069 63.0619C29.1283 63.133 29.1425 63.19 29.1497 63.2255C29.1497 63.2682 29.1497 63.2967 29.1283 63.3181C29.1069 63.3394 29.0713 63.3536 29.0142 63.3536C28.9572 63.3536 28.8859 63.3536 28.7861 63.3536C28.6863 63.3536 28.6079 63.3536 28.5509 63.3536C28.4938 63.3536 28.4511 63.3465 28.4225 63.3394C28.394 63.3323 28.3726 63.3181 28.3584 63.3038C28.3441 63.2896 28.337 63.2682 28.3299 63.2398L28.0732 62.4783H26.6475L26.4051 63.2184C26.4051 63.2184 26.3837 63.2682 26.3766 63.2896C26.3623 63.3109 26.3409 63.3252 26.3124 63.3323C26.2839 63.3465 26.2411 63.3536 26.1912 63.3536C26.1413 63.3536 26.07 63.3536 25.9845 63.3536C25.8918 63.3536 25.8277 63.3536 25.7706 63.3465C25.7207 63.3465 25.6851 63.3252 25.6637 63.3038C25.6423 63.2825 25.6352 63.2469 25.6423 63.2113C25.6423 63.1686 25.6637 63.1188 25.6851 63.0476L26.8542 59.6885C26.8542 59.6885 26.8827 59.6316 26.897 59.6102C26.9112 59.5889 26.9398 59.5746 26.9683 59.5604C27.0039 59.5533 27.0467 59.5462 27.1108 59.5391C27.175 59.5319 27.2534 59.5391 27.3532 59.5391C27.4673 59.5391 27.56 59.5391 27.6312 59.5391C27.7025 59.5391 27.7524 59.5462 27.7881 59.5604C27.8237 59.5746 27.8522 59.5889 27.8736 59.6102C27.895 59.6316 27.9021 59.66 27.9164 59.6956L29.0926 63.0547L29.1069 63.0619ZM27.3675 60.2792L26.8328 61.8876H27.9093L27.3746 60.2792H27.3675Z" fill="#E63312"/>
<path d="M32.7712 63.0758C32.7712 63.1185 32.7641 63.1612 32.7498 63.1968C32.7356 63.2324 32.7142 63.2609 32.6857 63.2822C32.6572 63.3036 32.6287 63.3249 32.593 63.332C32.5574 63.3463 32.5217 63.3463 32.4861 63.3463H32.1582C32.0869 63.3463 32.0298 63.3463 31.9799 63.3249C31.93 63.3107 31.8873 63.2893 31.8445 63.2537C31.8017 63.2182 31.7589 63.1683 31.7233 63.1043C31.6877 63.0402 31.6378 62.962 31.595 62.8694L30.654 61.0974C30.597 60.9906 30.5399 60.8767 30.49 60.7557C30.433 60.6348 30.3831 60.5138 30.3403 60.3999C30.3474 60.5422 30.3546 60.6775 30.3546 60.8198C30.3546 60.9621 30.3546 61.1045 30.3546 61.2539V63.2324C30.3546 63.2324 30.3546 63.268 30.3403 63.2822C30.3261 63.2964 30.3118 63.3107 30.2833 63.3249C30.2548 63.332 30.2191 63.3463 30.1764 63.3534C30.1336 63.3534 30.0766 63.3605 30.0053 63.3605C29.934 63.3605 29.8841 63.3605 29.8342 63.3534C29.7914 63.3534 29.7558 63.3391 29.7272 63.3249C29.6987 63.3107 29.6845 63.3036 29.6773 63.2822C29.6702 63.2609 29.6631 63.2466 29.6631 63.2324V59.8306C29.6631 59.738 29.6916 59.6669 29.7415 59.6242C29.7985 59.5815 29.8627 59.553 29.9411 59.553H30.3546C30.4259 59.553 30.49 59.553 30.5399 59.5744C30.5898 59.5886 30.6326 59.6099 30.6754 59.6384C30.7181 59.6669 30.7538 59.7096 30.7894 59.7594C30.8251 59.8092 30.8607 59.8733 30.8964 59.9516L31.6378 61.3393C31.6805 61.4247 31.7233 61.503 31.7661 61.5884C31.8088 61.6667 31.8516 61.7521 31.8873 61.8304C31.9229 61.9087 31.9657 61.9941 32.0013 62.0652C32.037 62.1435 32.0726 62.2218 32.1083 62.3001C32.1083 62.1649 32.1011 62.0225 32.094 61.8731C32.0869 61.7236 32.094 61.5813 32.094 61.4461V59.6669C32.094 59.6669 32.094 59.6313 32.1083 59.6171C32.1225 59.6028 32.1368 59.5886 32.1653 59.5744C32.1938 59.5601 32.2294 59.553 32.2722 59.553C32.315 59.553 32.372 59.5459 32.4433 59.5459C32.5075 59.5459 32.5645 59.5459 32.6073 59.553C32.65 59.553 32.6857 59.5672 32.7142 59.5744C32.7427 59.5815 32.757 59.6028 32.7641 59.6171C32.7712 59.6313 32.7784 59.6526 32.7784 59.6669V63.0687L32.7712 63.0758Z" fill="#E63312"/>
<path d="M34.3681 63.2397C34.3681 63.2397 34.3681 63.2753 34.3468 63.2896C34.3325 63.3038 34.3111 63.318 34.2826 63.3252C34.2541 63.3323 34.2113 63.3394 34.1614 63.3465C34.1115 63.3465 34.0474 63.3536 33.9761 63.3536C33.9048 63.3536 33.8406 63.3536 33.7907 63.3465C33.7408 63.3465 33.7052 63.3323 33.6695 63.3252C33.6339 63.318 33.6196 63.3038 33.6054 63.2896C33.5911 63.2753 33.584 63.254 33.584 63.2397V59.66C33.584 59.66 33.584 59.6244 33.6054 59.6102C33.6196 59.596 33.641 59.5817 33.6695 59.5746C33.698 59.5675 33.7408 59.5604 33.7907 59.5533C33.8406 59.5533 33.9048 59.5461 33.9761 59.5461C34.0474 59.5461 34.1115 59.5461 34.1614 59.5533C34.2113 59.5533 34.247 59.5675 34.2826 59.5746C34.3111 59.5817 34.3325 59.596 34.3468 59.6102C34.361 59.6244 34.3681 59.6458 34.3681 59.66V63.2397Z" fill="#E63312"/>
<path d="M37.4477 63.0475C37.4477 63.1045 37.4477 63.1543 37.4406 63.1899C37.4406 63.2254 37.4263 63.261 37.4192 63.2824C37.4121 63.3037 37.3978 63.3251 37.3836 63.3322C37.3693 63.3393 37.355 63.3464 37.3337 63.3464H35.4303C35.3661 63.3464 35.3091 63.3251 35.2663 63.2895C35.2235 63.2539 35.2021 63.1899 35.2021 63.1045V59.8023C35.2021 59.7169 35.2235 59.6528 35.2663 59.6172C35.3091 59.5817 35.3661 59.5603 35.4303 59.5603H37.3265C37.3265 59.5603 37.3622 59.5603 37.3764 59.5745C37.3907 59.5888 37.4049 59.603 37.4121 59.6244C37.4192 59.6457 37.4263 59.6813 37.4335 59.7169C37.4335 59.7525 37.4406 59.8023 37.4406 59.8592C37.4406 59.9161 37.4406 59.9588 37.4335 60.0015C37.4263 60.0442 37.4192 60.0727 37.4121 60.0941C37.4049 60.1154 37.3907 60.1368 37.3764 60.1439C37.3622 60.1581 37.3479 60.1581 37.3265 60.1581H35.9721V61.0833H37.1198C37.1198 61.0833 37.1554 61.0833 37.1697 61.0975C37.1839 61.1118 37.1982 61.126 37.2053 61.1473C37.2125 61.1687 37.2196 61.1972 37.2267 61.2399C37.2267 61.2754 37.2338 61.3253 37.2338 61.3822C37.2338 61.4391 37.2338 61.489 37.2267 61.5245C37.2267 61.5601 37.2125 61.5886 37.2053 61.6171C37.1982 61.6455 37.1839 61.6526 37.1697 61.6669C37.1554 61.6811 37.1412 61.6811 37.1198 61.6811H35.9721V62.7486H37.3408C37.3408 62.7486 37.3764 62.7486 37.3907 62.7629C37.4049 62.77 37.4192 62.7913 37.4263 62.8127C37.4335 62.834 37.4406 62.8696 37.4477 62.9052C37.4548 62.9408 37.4548 62.9906 37.4548 63.0475H37.4477Z" fill="#E63312"/>
<path d="M3.63617 69.2392C3.63617 69.2392 3.63617 69.2819 3.62192 69.2961C3.60766 69.3104 3.5934 69.3246 3.56489 69.3317C3.53637 69.3388 3.4936 69.3459 3.43657 69.3531C3.37954 69.3531 3.30112 69.3531 3.20132 69.3531C3.11577 69.3531 3.05161 69.3531 3.00171 69.3531C2.95181 69.3531 2.91617 69.3388 2.88765 69.3317C2.85914 69.3246 2.83775 69.3104 2.83062 69.289C2.81637 69.2748 2.80924 69.2534 2.80211 69.2321L2.45993 68.3852C2.41715 68.2927 2.38151 68.2073 2.33874 68.129C2.30309 68.0578 2.25319 67.9938 2.21042 67.9439C2.16052 67.8941 2.11062 67.8585 2.04646 67.8301C1.9823 67.8016 1.91101 67.7945 1.8326 67.7945H1.59022V69.2392C1.59022 69.2392 1.59022 69.2748 1.56883 69.289C1.55457 69.3032 1.53319 69.3175 1.50467 69.3246C1.47616 69.3317 1.43339 69.3388 1.39061 69.3459C1.34071 69.3459 1.27655 69.3531 1.20526 69.3531C1.13398 69.3531 1.06982 69.3531 1.01992 69.3459C0.970016 69.3459 0.927243 69.3317 0.898728 69.3246C0.870213 69.3175 0.848827 69.3032 0.834569 69.289C0.820311 69.2748 0.820313 69.2534 0.820313 69.2392V65.8018C0.820313 65.7164 0.841699 65.6523 0.884471 65.6167C0.927244 65.5812 0.984274 65.5598 1.04843 65.5598H2.0322C2.132 65.5598 2.21042 65.5598 2.28171 65.5598C2.34587 65.5598 2.4029 65.5669 2.45993 65.5741C2.60963 65.5954 2.75221 65.631 2.87339 65.6879C2.99458 65.7377 3.10152 65.8089 3.18706 65.8943C3.27261 65.9797 3.33677 66.0793 3.37954 66.1932C3.42231 66.3071 3.4437 66.4423 3.4437 66.5917C3.4437 66.7198 3.42944 66.8337 3.39379 66.9405C3.35815 67.0472 3.31538 67.1397 3.25122 67.218C3.18706 67.2963 3.10864 67.3675 3.0231 67.4315C2.93755 67.4956 2.82349 67.5383 2.70943 67.581C2.76646 67.6094 2.81636 67.6379 2.86627 67.6806C2.91617 67.7162 2.96607 67.766 3.00884 67.823C3.05161 67.8799 3.09439 67.9439 3.13003 68.0151C3.16567 68.0863 3.20845 68.1646 3.24409 68.2571L3.56489 69.0043C3.5934 69.0755 3.61479 69.1324 3.62192 69.168C3.62904 69.2036 3.63617 69.2321 3.63617 69.2463V69.2392ZM2.63815 66.67C2.63815 66.549 2.60963 66.4423 2.5526 66.3569C2.49557 66.2715 2.4029 66.2074 2.27458 66.179C2.23894 66.1719 2.18903 66.1576 2.13913 66.1576C2.08923 66.1576 2.01794 66.1505 1.9324 66.1505H1.59022V67.2251H1.9823C2.08923 67.2251 2.18903 67.2109 2.26745 67.1824C2.353 67.154 2.41715 67.1184 2.47418 67.0686C2.53121 67.0188 2.56686 66.9618 2.59537 66.8978C2.62389 66.8337 2.63815 66.7554 2.63815 66.6771V66.67Z" fill="#005B9A"/>
<path d="M6.48775 69.04C6.48775 69.0969 6.48775 69.1467 6.48062 69.1823C6.48062 69.2179 6.46636 69.2535 6.45923 69.2748C6.4521 69.2962 6.43784 69.3175 6.42359 69.3246C6.40933 69.3317 6.39507 69.3389 6.37369 69.3389H4.47031C4.40615 69.3389 4.34912 69.3175 4.30635 69.2819C4.26357 69.2463 4.24219 69.1823 4.24219 69.0969V65.7947C4.24219 65.7093 4.26357 65.6453 4.30635 65.6097C4.34912 65.5741 4.40615 65.5527 4.47031 65.5527H6.36656C6.36656 65.5527 6.4022 65.5527 6.41646 65.567C6.43072 65.5812 6.44497 65.5954 6.4521 65.6168C6.45923 65.6381 6.46636 65.6737 6.47349 65.7093C6.47349 65.7449 6.48062 65.7947 6.48062 65.8516C6.48062 65.9086 6.48062 65.9513 6.47349 65.994C6.46636 66.0367 6.45923 66.0651 6.4521 66.0865C6.44497 66.1078 6.43072 66.1292 6.41646 66.1363C6.4022 66.1505 6.38794 66.1505 6.36656 66.1505H5.01209V67.0757H6.15982C6.15982 67.0757 6.19547 67.0757 6.20972 67.09C6.22398 67.1042 6.23824 67.1184 6.24537 67.1398C6.2525 67.1611 6.25963 67.1896 6.26676 67.2323C6.26676 67.2679 6.27388 67.3177 6.27388 67.3746C6.27388 67.4316 6.27388 67.4814 6.26676 67.517C6.26676 67.5526 6.2525 67.581 6.24537 67.6095C6.23824 67.638 6.22398 67.6451 6.20972 67.6593C6.19547 67.6735 6.18121 67.6735 6.15982 67.6735H5.01209V68.7411H6.38082C6.38082 68.7411 6.41646 68.7411 6.43072 68.7553C6.44497 68.7624 6.45923 68.7838 6.46636 68.8051C6.47349 68.8265 6.48062 68.862 6.48775 68.8976C6.49487 68.9332 6.49488 68.983 6.49488 69.04H6.48775Z" fill="#005B9A"/>
<path d="M9.9808 69.2248C9.9808 69.2248 9.9808 69.2675 9.96655 69.2817C9.95229 69.2959 9.93803 69.3102 9.90239 69.3244C9.87387 69.3315 9.8311 69.3458 9.7812 69.3529C9.7313 69.3529 9.66001 69.36 9.58159 69.36C9.45327 69.36 9.3606 69.36 9.3107 69.3458C9.2608 69.3315 9.21803 69.3244 9.18951 69.3031C9.161 69.2817 9.14674 69.2604 9.13248 69.2319L7.98475 67.4313V69.2319C7.98475 69.2319 7.98475 69.2746 7.97049 69.2888C7.95624 69.3031 7.93485 69.3173 7.90633 69.3315C7.87782 69.3386 7.83505 69.3529 7.79227 69.36C7.74237 69.36 7.67821 69.3671 7.60693 69.3671C7.53564 69.3671 7.47148 69.3671 7.42158 69.36C7.37168 69.36 7.33603 69.3458 7.30039 69.3315C7.27187 69.3173 7.25049 69.3102 7.23623 69.2888C7.22197 69.2746 7.21484 69.2532 7.21484 69.2319V65.6664C7.21484 65.6664 7.21484 65.6237 7.23623 65.6094C7.25049 65.5952 7.27187 65.581 7.30039 65.5739C7.3289 65.5668 7.37168 65.5596 7.42158 65.5525C7.47148 65.5525 7.53564 65.5454 7.60693 65.5454C7.67821 65.5454 7.74237 65.5454 7.79227 65.5525C7.84218 65.5525 7.87782 65.5668 7.90633 65.5739C7.93485 65.581 7.95624 65.5952 7.97049 65.6094C7.98475 65.6237 7.98475 65.645 7.98475 65.6664V67.2819L9.09684 65.6735C9.09684 65.6735 9.12535 65.6237 9.14674 65.6094C9.16812 65.5952 9.18951 65.581 9.22515 65.5667C9.25367 65.5596 9.29644 65.5525 9.34634 65.5454C9.39625 65.5383 9.4604 65.5454 9.53169 65.5454C9.60298 65.5454 9.67427 65.5454 9.72417 65.5525C9.77407 65.5525 9.81684 65.5667 9.84536 65.581C9.87387 65.5952 9.89526 65.6023 9.90951 65.6237C9.92377 65.6379 9.92377 65.6593 9.92377 65.6735C9.92377 65.7091 9.91664 65.7376 9.89526 65.7731C9.881 65.8087 9.84536 65.8657 9.79545 65.9368L8.75466 67.2961L9.88813 69.0113C9.9309 69.0896 9.95942 69.1465 9.96655 69.1678C9.97367 69.1963 9.9808 69.2177 9.9808 69.2319V69.2248Z" fill="#005B9A"/>
<path d="M13.687 67.403C13.687 67.7161 13.6514 68.0008 13.573 68.2428C13.4946 68.4918 13.3805 68.6982 13.2237 68.8762C13.0668 69.047 12.8815 69.1822 12.6534 69.2676C12.4252 69.353 12.1615 69.4028 11.8621 69.4028C11.5627 69.4028 11.3132 69.3672 11.0922 69.2889C10.8712 69.2106 10.6858 69.0968 10.5433 68.9331C10.4007 68.7694 10.2866 68.5772 10.2153 68.3282C10.144 68.0862 10.1084 67.7944 10.1084 67.4599C10.1084 67.1539 10.144 66.8763 10.2225 66.6344C10.3009 66.3924 10.4149 66.1789 10.5718 66.0081C10.7286 65.8373 10.9139 65.7021 11.1421 65.6167C11.3702 65.5313 11.634 65.4814 11.9334 65.4814C12.2328 65.4814 12.4751 65.517 12.6961 65.5953C12.9171 65.6736 13.1025 65.7875 13.2451 65.944C13.3948 66.1006 13.5017 66.2999 13.5801 66.5418C13.6585 66.7838 13.6942 67.0685 13.6942 67.3959L13.687 67.403ZM12.8744 67.4457C12.8744 67.2464 12.8601 67.0685 12.8245 66.9048C12.7959 66.7411 12.7389 66.6059 12.6676 66.4849C12.5892 66.371 12.4894 66.2785 12.3682 66.2145C12.2399 66.1504 12.0902 66.122 11.8977 66.122C11.7052 66.122 11.5484 66.1575 11.4201 66.2287C11.2918 66.2999 11.192 66.3924 11.1136 66.5134C11.0351 66.6344 10.9781 66.7696 10.9496 66.9333C10.9211 67.0898 10.8997 67.2606 10.8997 67.4386C10.8997 67.6449 10.9139 67.83 10.9496 67.9937C10.9781 68.1574 11.0351 68.2997 11.1064 68.4136C11.1777 68.5345 11.2775 68.6199 11.4058 68.684C11.5342 68.748 11.691 68.7765 11.8763 68.7765C12.0617 68.7765 12.2256 68.7409 12.354 68.6698C12.4823 68.5986 12.5821 68.5061 12.6605 68.3851C12.7389 68.2641 12.7959 68.1218 12.8245 67.9652C12.8601 67.8015 12.8744 67.6307 12.8744 67.4528V67.4457Z" fill="#005B9A"/>
<path d="M18.7988 69.2321C18.7988 69.2321 18.7988 69.2677 18.7846 69.2819C18.7703 69.2961 18.7561 69.3104 18.7275 69.3175C18.699 69.3246 18.6634 69.3317 18.6135 69.3388C18.5636 69.3388 18.5066 69.3459 18.4353 69.3459C18.364 69.3459 18.307 69.3459 18.257 69.3388C18.2071 69.3388 18.1715 69.3246 18.143 69.3175C18.1145 69.3104 18.0931 69.2961 18.086 69.2819C18.0717 69.2677 18.0717 69.2463 18.0717 69.2321V66.1505L16.9739 69.2321C16.9739 69.2321 16.9525 69.2819 16.9382 69.2961C16.924 69.3104 16.8955 69.3246 16.8669 69.3388C16.8384 69.3531 16.7957 69.3531 16.7529 69.3602C16.703 69.3602 16.6459 69.3602 16.5818 69.3602C16.5176 69.3602 16.4606 69.3602 16.4107 69.3602C16.3608 69.3602 16.3252 69.3459 16.2966 69.3388C16.2681 69.3317 16.2396 69.3175 16.2254 69.2961C16.2111 69.2819 16.1968 69.2605 16.1897 69.2392L15.1275 66.1576V69.2392C15.1275 69.2392 15.1275 69.2748 15.1133 69.289C15.099 69.3032 15.0848 69.3175 15.0562 69.3246C15.0277 69.3317 14.9921 69.3388 14.9422 69.3459C14.8994 69.3459 14.8352 69.3531 14.764 69.3531C14.6927 69.3531 14.6356 69.3531 14.5857 69.3459C14.5358 69.3459 14.5002 69.3317 14.4717 69.3246C14.4432 69.3175 14.4218 69.3032 14.4146 69.289C14.4004 69.2748 14.4004 69.2534 14.4004 69.2392V65.8658C14.4004 65.7662 14.4289 65.6879 14.4788 65.6381C14.5287 65.5883 14.6 65.5598 14.6927 65.5598H15.1988C15.2915 65.5598 15.3628 65.5598 15.4269 65.5812C15.4911 65.5954 15.5481 65.6239 15.5909 65.6523C15.6408 65.6879 15.6764 65.7306 15.705 65.7876C15.7335 65.8445 15.762 65.9085 15.7905 65.9939L16.6103 68.25H16.6246L17.4729 66.0011C17.5014 65.9157 17.5228 65.8516 17.5584 65.7947C17.5869 65.7377 17.6226 65.695 17.6654 65.6594C17.7081 65.6239 17.7509 65.6025 17.8079 65.5812C17.865 65.5598 17.9291 65.5598 18.0004 65.5598H18.5208C18.5707 65.5598 18.6206 65.5598 18.6563 65.5812C18.6919 65.5954 18.7275 65.6167 18.7489 65.6381C18.7703 65.6666 18.7917 65.695 18.806 65.7377C18.8202 65.7733 18.8274 65.816 18.8274 65.8658V69.2392L18.7988 69.2321Z" fill="#005B9A"/>
<path d="M21.9135 69.04C21.9135 69.0969 21.9135 69.1467 21.9064 69.1823C21.9064 69.2179 21.8921 69.2535 21.885 69.2748C21.8779 69.2962 21.8636 69.3175 21.8494 69.3246C21.8351 69.3317 21.8209 69.3389 21.7995 69.3389H19.8961C19.8319 69.3389 19.7749 69.3175 19.7321 69.2819C19.6894 69.2463 19.668 69.1823 19.668 69.0969V65.7947C19.668 65.7093 19.6894 65.6453 19.7321 65.6097C19.7749 65.5741 19.8319 65.5527 19.8961 65.5527H21.7923C21.7923 65.5527 21.828 65.5527 21.8422 65.567C21.8565 65.5812 21.8708 65.5954 21.8779 65.6168C21.885 65.6381 21.8921 65.6737 21.8993 65.7093C21.8993 65.7449 21.9064 65.7947 21.9064 65.8516C21.9064 65.9086 21.9064 65.9513 21.8993 65.994C21.8921 66.0367 21.885 66.0651 21.8779 66.0865C21.8708 66.1078 21.8565 66.1292 21.8422 66.1363C21.828 66.1505 21.8137 66.1505 21.7923 66.1505H20.4379V67.0757H21.5856C21.5856 67.0757 21.6212 67.0757 21.6355 67.09C21.6498 67.1042 21.664 67.1184 21.6711 67.1398C21.6783 67.1611 21.6854 67.1896 21.6925 67.2323C21.6925 67.2679 21.6997 67.3177 21.6997 67.3746C21.6997 67.4316 21.6997 67.4814 21.6925 67.517C21.6925 67.5526 21.6783 67.581 21.6711 67.6095C21.664 67.638 21.6498 67.6451 21.6355 67.6593C21.6212 67.6735 21.607 67.6735 21.5856 67.6735H20.4379V68.7411H21.8066C21.8066 68.7411 21.8422 68.7411 21.8565 68.7553C21.8708 68.7624 21.885 68.7838 21.8921 68.8051C21.8993 68.8265 21.9064 68.862 21.9135 68.8976C21.9207 68.9332 21.9207 68.983 21.9207 69.04H21.9135Z" fill="#005B9A"/>
<path d="M25.7637 69.0685C25.7637 69.1112 25.7566 69.1539 25.7423 69.1895C25.7281 69.2251 25.7067 69.2535 25.6782 69.2749C25.6496 69.2962 25.6211 69.3176 25.5855 69.3247C25.5498 69.3389 25.5142 69.3389 25.4786 69.3389H25.1506C25.0793 69.3389 25.0223 69.3389 24.9724 69.3176C24.9225 69.2962 24.8797 69.282 24.837 69.2464C24.7942 69.2108 24.7514 69.161 24.7158 69.097C24.6801 69.0329 24.6302 68.9546 24.5803 68.8621L23.6393 67.09C23.5823 66.9833 23.5324 66.8694 23.4754 66.7484C23.4183 66.6274 23.3684 66.5065 23.3257 66.3926C23.3328 66.5349 23.3399 66.6701 23.3399 66.8125C23.3399 66.9548 23.3399 67.0972 23.3399 67.2466V69.2251C23.3399 69.2251 23.3399 69.2607 23.3257 69.2749C23.3185 69.2891 23.2972 69.3033 23.2686 69.3176C23.2401 69.3247 23.2045 69.3389 23.1617 69.3461C23.1189 69.3461 23.0619 69.3532 22.9906 69.3532C22.9193 69.3532 22.8694 69.3532 22.8195 69.3461C22.7768 69.3461 22.7411 69.3318 22.7126 69.3176C22.6841 69.3033 22.6698 69.2962 22.6627 69.2749C22.6556 69.2607 22.6484 69.2393 22.6484 69.2251V65.8232C22.6484 65.7307 22.677 65.6596 22.7269 65.6169C22.7768 65.5742 22.848 65.5457 22.9265 65.5457H23.3399C23.4112 65.5457 23.4754 65.5457 23.5253 65.567C23.5752 65.5813 23.6179 65.6026 23.6607 65.6311C23.6964 65.6596 23.7391 65.7023 23.7748 65.7521C23.8104 65.8019 23.8461 65.8659 23.8817 65.9442L24.6231 67.332C24.6659 67.4174 24.7086 67.4957 24.7514 67.5811C24.7942 67.6594 24.837 67.7448 24.8726 67.8231C24.9083 67.9013 24.951 67.9867 24.9867 68.0579C25.0223 68.1362 25.058 68.2145 25.0936 68.2928C25.0936 68.1576 25.0865 68.0152 25.0793 67.8658C25.0722 67.7163 25.0793 67.574 25.0793 67.4388V65.6596C25.0793 65.6596 25.0793 65.624 25.0936 65.6097C25.1079 65.5955 25.1221 65.5813 25.1506 65.567C25.1791 65.5528 25.2148 65.5457 25.2576 65.5457C25.3003 65.5457 25.3574 65.5386 25.4287 65.5386C25.4928 65.5386 25.5498 65.5386 25.5926 65.5457C25.6354 65.5457 25.671 65.5599 25.6924 65.567C25.7209 65.5813 25.7352 65.5955 25.7423 65.6097C25.7494 65.624 25.7566 65.6453 25.7566 65.6596V69.0614L25.7637 69.0685Z" fill="#005B9A"/>
<path d="M29.7837 67.3889C29.7837 67.7376 29.7409 68.0365 29.6483 68.2785C29.5556 68.5276 29.4273 68.7269 29.2562 68.8834C29.0851 69.04 28.8784 69.1539 28.636 69.225C28.3936 69.2962 28.1013 69.3318 27.7663 69.3318H26.8609C26.7968 69.3318 26.7397 69.3104 26.697 69.2748C26.6542 69.2393 26.6328 69.1752 26.6328 69.0898V65.7876C26.6328 65.7022 26.6542 65.6382 26.697 65.6026C26.7397 65.567 26.7968 65.5457 26.8609 65.5457H27.8376C28.1726 65.5457 28.4649 65.5884 28.7002 65.6666C28.9354 65.7449 29.135 65.8659 29.2918 66.0154C29.4558 66.1719 29.577 66.3641 29.6625 66.5918C29.7481 66.8196 29.7909 67.0829 29.7909 67.3818L29.7837 67.3889ZM28.9853 67.4174C28.9853 67.2394 28.9639 67.0686 28.9211 66.9192C28.8784 66.7626 28.8142 66.6345 28.7215 66.5206C28.6289 66.4068 28.5077 66.3214 28.3651 66.2573C28.2225 66.1933 28.03 66.1648 27.7948 66.1648H27.4027V68.7411H27.8019C28.0158 68.7411 28.194 68.7126 28.3366 68.6557C28.4792 68.5987 28.6004 68.5205 28.7002 68.4066C28.8 68.2998 28.8712 68.1575 28.914 67.9938C28.9568 67.8301 28.9853 67.638 28.9853 67.4174Z" fill="#005B9A"/>
<path d="M33.4272 69.054C33.4486 69.1252 33.4629 69.1821 33.47 69.2177C33.47 69.2604 33.47 69.2889 33.4486 69.3103C33.4272 69.3316 33.3916 69.3458 33.3345 69.3458C33.2775 69.3458 33.2062 69.3458 33.1064 69.3458C33.0066 69.3458 32.9282 69.3458 32.8712 69.3458C32.8141 69.3458 32.7714 69.3387 32.7429 69.3316C32.7143 69.3245 32.6929 69.3103 32.6787 69.296C32.6644 69.2818 32.6573 69.2604 32.6502 69.232L32.3935 68.4705H30.9678L30.7254 69.2106C30.7254 69.2106 30.704 69.2604 30.6969 69.2818C30.6826 69.3031 30.6613 69.3174 30.6327 69.3245C30.6042 69.3387 30.5614 69.3458 30.5115 69.3458C30.4616 69.3458 30.3904 69.3458 30.3048 69.3458C30.2121 69.3458 30.148 69.3458 30.091 69.3387C30.0411 69.3387 30.0054 69.3174 29.984 69.296C29.9626 69.2747 29.9555 69.2391 29.9626 69.2035C29.9626 69.1608 29.984 69.111 30.0054 69.0398L31.1745 65.6807C31.1745 65.6807 31.203 65.6238 31.2173 65.6024C31.2316 65.5811 31.2601 65.5668 31.2886 65.5526C31.3242 65.5455 31.367 65.5384 31.4312 65.5312C31.4953 65.5241 31.5737 65.5312 31.6735 65.5312C31.7876 65.5312 31.8803 65.5312 31.9516 65.5312C32.0228 65.5312 32.0727 65.5384 32.1084 65.5526C32.144 65.5668 32.1725 65.5811 32.1939 65.6024C32.2153 65.6238 32.2225 65.6522 32.2367 65.6878L33.413 69.0469L33.4272 69.054ZM31.6878 66.2785L31.1531 67.8869H32.2296L31.6949 66.2785H31.6878Z" fill="#005B9A"/>
<path d="M36.5496 68.7694C36.5496 68.8193 36.5496 68.862 36.5496 68.8904C36.5496 68.926 36.5497 68.9545 36.5354 68.9758C36.5354 68.9972 36.5211 69.0185 36.514 69.0399C36.5069 69.0612 36.4855 69.0755 36.4641 69.0968C36.4427 69.1182 36.3999 69.1466 36.3429 69.1822C36.2788 69.2178 36.2075 69.2534 36.1148 69.2818C36.0292 69.3174 35.9223 69.3388 35.8083 69.3601C35.6942 69.3815 35.573 69.3886 35.4376 69.3886C35.1809 69.3886 34.9457 69.3459 34.7318 69.2676C34.5251 69.1893 34.3469 69.0683 34.1972 68.9118C34.0475 68.7552 33.9405 68.5559 33.8621 68.314C33.7837 68.072 33.748 67.8016 33.748 67.4813C33.748 67.161 33.7908 66.8764 33.8764 66.6202C33.9619 66.3711 34.0831 66.1576 34.2399 65.9939C34.3968 65.8302 34.5821 65.695 34.796 65.6096C35.0098 65.5242 35.2522 65.4744 35.5089 65.4744C35.6158 65.4744 35.7156 65.4815 35.8154 65.5028C35.9152 65.5242 36.0007 65.5455 36.0863 65.574C36.1718 65.6025 36.2431 65.6381 36.3073 65.6736C36.3714 65.7092 36.4213 65.7448 36.4498 65.7662C36.4784 65.7875 36.4926 65.816 36.5069 65.8302C36.5211 65.8444 36.5211 65.8729 36.5283 65.8943C36.5283 65.9227 36.5354 65.9512 36.5425 65.9939C36.5425 66.0295 36.5425 66.0793 36.5425 66.1291C36.5425 66.186 36.5425 66.2359 36.5425 66.2786C36.5425 66.3213 36.5354 66.3497 36.5211 66.3782C36.514 66.4067 36.4998 66.4209 36.4855 66.4351C36.4712 66.4494 36.457 66.4494 36.4356 66.4494C36.4071 66.4494 36.3714 66.4351 36.3215 66.3995C36.2716 66.364 36.2217 66.3284 36.1433 66.2857C36.072 66.243 35.9865 66.2074 35.8867 66.1718C35.7869 66.1362 35.6728 66.122 35.5302 66.122C35.3805 66.122 35.2451 66.1505 35.1239 66.2145C35.0027 66.2786 34.9029 66.364 34.8245 66.4778C34.7389 66.5917 34.6748 66.7269 34.632 66.8906C34.5892 67.0543 34.5679 67.2322 34.5679 67.4386C34.5679 67.6592 34.5892 67.8514 34.6391 68.0151C34.6819 68.1787 34.7532 68.314 34.8388 68.4207C34.9243 68.5275 35.0241 68.6057 35.1453 68.6556C35.2665 68.7054 35.4019 68.7339 35.5516 68.7339C35.6871 68.7339 35.8083 68.7196 35.9081 68.684C36.0079 68.6556 36.0934 68.6129 36.1647 68.5773C36.236 68.5417 36.293 68.5061 36.3429 68.4705C36.3928 68.435 36.4213 68.4207 36.4498 68.4207C36.4712 68.4207 36.4855 68.4207 36.4997 68.4349C36.514 68.4492 36.5211 68.4563 36.5283 68.4848C36.5354 68.5061 36.5425 68.5417 36.5425 68.5844C36.5425 68.6271 36.5425 68.684 36.5425 68.7552L36.5496 68.7694Z" fill="#005B9A"/>
<path d="M38.3603 68.2854C38.3603 68.4562 38.346 68.6128 38.3104 68.748C38.2818 68.8832 38.2248 69.0042 38.1464 69.0967C38.068 69.1963 37.9682 69.2675 37.847 69.3173C37.7187 69.3671 37.569 69.3956 37.3836 69.3956C37.3266 69.3956 37.2696 69.3956 37.2125 69.3814C37.1555 69.3743 37.0985 69.36 37.0557 69.3458C37.0058 69.3316 36.9702 69.3173 36.9345 69.3031C36.8989 69.2889 36.8775 69.2746 36.8632 69.2604C36.849 69.2462 36.8418 69.2319 36.8347 69.2177C36.8276 69.2035 36.8205 69.1892 36.8133 69.1608C36.8133 69.1394 36.8062 69.1109 36.7991 69.0754C36.7919 69.0398 36.7991 68.9971 36.7991 68.9473C36.7991 68.8832 36.7991 68.8263 36.7991 68.7765C36.7991 68.7266 36.8062 68.6911 36.8133 68.6697C36.8205 68.6484 36.8276 68.627 36.8418 68.6128C36.8561 68.5985 36.8704 68.5985 36.8917 68.5985C36.906 68.5985 36.9274 68.5985 36.9559 68.6199C36.9844 68.6412 37.0058 68.6484 37.0343 68.6626C37.0628 68.6768 37.0985 68.6911 37.1341 68.7053C37.1698 68.7195 37.2197 68.7266 37.2696 68.7266C37.3195 68.7266 37.3694 68.7266 37.4121 68.7053C37.4549 68.6911 37.4834 68.6626 37.5119 68.627C37.5405 68.5914 37.5618 68.5416 37.569 68.4847C37.5832 68.4277 37.5904 68.3423 37.5904 68.2498V65.6451C37.5904 65.6451 37.5904 65.6095 37.6117 65.5953C37.626 65.581 37.6474 65.5668 37.6759 65.5597C37.7044 65.5526 37.7401 65.5454 37.7971 65.5383C37.8541 65.5312 37.9112 65.5383 37.9824 65.5383C38.0537 65.5383 38.1179 65.5383 38.1678 65.5383C38.2177 65.5383 38.2533 65.5526 38.289 65.5597C38.3175 65.5668 38.3389 65.581 38.3531 65.5953C38.3674 65.6095 38.3745 65.6237 38.3745 65.6451V68.2783L38.3603 68.2854Z" fill="#005B9A"/>
<path d="M42.1948 69.054C42.2162 69.1252 42.2304 69.1821 42.2376 69.2177C42.2376 69.2604 42.2376 69.2889 42.2162 69.3103C42.1948 69.3316 42.1591 69.3458 42.1021 69.3458C42.0451 69.3458 41.9738 69.3458 41.874 69.3458C41.7742 69.3458 41.6958 69.3458 41.6387 69.3458C41.5817 69.3458 41.5389 69.3387 41.5104 69.3316C41.4819 69.3245 41.4605 69.3103 41.4463 69.296C41.432 69.2818 41.4249 69.2604 41.4178 69.232L41.1611 68.4705H39.7354L39.493 69.2106C39.493 69.2106 39.4716 69.2604 39.4645 69.2818C39.4502 69.3031 39.4288 69.3174 39.4003 69.3245C39.3718 69.3387 39.329 69.3458 39.2791 69.3458C39.2292 69.3458 39.1579 69.3458 39.0724 69.3458C38.9797 69.3458 38.9156 69.3458 38.8585 69.3387C38.8086 69.3387 38.773 69.3174 38.7516 69.296C38.7302 69.2747 38.7231 69.2391 38.7302 69.2035C38.7302 69.1608 38.7516 69.111 38.773 69.0398L39.9421 65.6807C39.9421 65.6807 39.9706 65.6238 39.9849 65.6024C39.9991 65.5811 40.0276 65.5668 40.0562 65.5526C40.0918 65.5455 40.1346 65.5384 40.1987 65.5312C40.2629 65.5241 40.3413 65.5312 40.4411 65.5312C40.5552 65.5312 40.6478 65.5312 40.7191 65.5312C40.7904 65.5312 40.8403 65.5384 40.876 65.5526C40.9116 65.5668 40.9401 65.5811 40.9615 65.6024C40.9829 65.6238 40.99 65.6522 41.0043 65.6878L42.1805 69.0469L42.1948 69.054ZM40.4554 66.2785L39.9207 67.8869H40.9972L40.4625 66.2785H40.4554Z" fill="#005B9A"/>
<path d="M36.521 44.85C35.8723 44.85 35.3447 44.3234 35.3447 43.6757C35.3447 43.0281 35.8723 42.5015 36.521 42.5015C37.1697 42.5015 37.6972 43.0281 37.6972 43.6757C37.6972 44.3234 37.1697 44.85 36.521 44.85ZM36.521 42.6438C35.9507 42.6438 35.4873 43.1064 35.4873 43.6757C35.4873 44.2451 35.9507 44.7077 36.521 44.7077C37.0913 44.7077 37.5546 44.2451 37.5546 43.6757C37.5546 43.1064 37.0913 42.6438 36.521 42.6438Z" fill="#005B9A"/>
<path d="M36.2781 43.7539V44.3232H36.0928V42.9568H36.4777C36.5633 42.9568 36.6417 42.9639 36.6987 42.9853C36.7629 42.9995 36.8128 43.028 36.8556 43.0635C36.8983 43.0991 36.9268 43.1347 36.9482 43.1845C36.9696 43.2343 36.9767 43.2842 36.9767 43.3411C36.9767 43.3909 36.9696 43.4336 36.9554 43.4763C36.9411 43.519 36.9197 43.5546 36.8912 43.5902C36.8627 43.6258 36.827 43.6542 36.7843 43.6756C36.7415 43.6969 36.6987 43.7183 36.6417 43.7325C36.6631 43.7468 36.6845 43.7681 36.7058 43.7895L37.1051 44.3303H36.9411C36.9411 44.3303 36.8841 44.3161 36.8698 44.2947L36.5134 43.8037C36.5134 43.8037 36.492 43.7752 36.4777 43.7681C36.4635 43.7681 36.4492 43.761 36.4207 43.761H36.2781V43.7539ZM36.2781 43.6186H36.4706C36.5276 43.6186 36.5704 43.6186 36.6132 43.5973C36.6559 43.5831 36.6916 43.5688 36.713 43.5404C36.7415 43.519 36.7629 43.4905 36.7771 43.455C36.7914 43.4194 36.7985 43.3838 36.7985 43.3482C36.7985 43.2699 36.77 43.2059 36.7201 43.1632C36.6631 43.1205 36.5847 43.0991 36.4777 43.0991H36.2781V43.6115V43.6186Z" fill="#005B9A"/>
</svg>
